<?xml version="1.0" encoding="UTF-8"?>
<svg version="1.1" xmlns="http://www.w3.org/2000/svg" width="4152" height="1737">
<path d="M0 0 C3.27815444 1.43583971 5.44893857 3.19937667 7.97211385 5.72371686 C8.75801514 6.50512356 9.54391644 7.28653027 10.35363293 8.09161597 C11.2126801 8.95591718 12.07172728 9.82021838 12.95680618 10.71071053 C13.8765201 11.62811675 14.79623401 12.54552298 15.74381804 13.49072939 C18.30910074 16.04985841 20.86807769 18.61521416 23.42611504 21.18158265 C26.20536342 23.96768555 28.99039749 26.74799456 31.77471614 29.52902877 C36.65786965 34.40802916 41.53728302 39.29074535 46.4142952 44.17588425 C53.66629393 51.43993369 60.92399897 58.69826143 68.1829038 65.95540887 C80.39229597 78.1621707 92.59702005 90.37358981 104.79911041 102.5876503 C116.88449773 114.68486292 128.97194303 126.78001304 141.06215668 138.87240219 C141.81328167 139.62366467 142.56440667 140.37492714 143.33829303 141.14895515 C147.15273217 144.96407094 150.96720825 148.77914979 154.78169855 152.59421442 C181.8148467 179.6315658 208.84335279 206.67355335 235.86914062 233.71826172 C262.12786295 259.99534637 288.38868042 286.27033427 314.65234375 312.54248047 C315.46159595 313.35199572 316.27084815 314.16151097 317.10462314 314.99555699 C325.23130854 323.12487938 333.35803662 331.2541591 341.48479598 339.38340755 C358.04062813 355.94431241 374.59617533 372.50550212 391.15155029 389.06686401 C392.29338905 390.20911464 392.29338905 390.20911464 393.45829525 391.37444103 C444.31030307 442.2448569 495.1556677 493.1219127 546 544 C544.4136299 547.85001825 541.96450905 550.28488343 539.0387615 553.2096355 C538.52580124 553.72515192 538.01284099 554.24066835 537.48433648 554.77180649 C535.75265925 556.50964173 534.0139045 558.24021966 532.27513695 559.97095871 C531.01888985 561.22868436 529.76308187 562.48684874 528.50767529 563.74541336 C525.03466372 567.22458712 521.55540294 570.69745357 518.07515037 574.16938202 C514.29837833 577.93930656 510.52739143 581.71501015 506.75568545 585.49000192 C500.13729778 592.11254492 493.51518703 598.7313469 486.89066124 605.34774971 C477.04017282 615.18619292 467.19539833 625.0303387 457.35180996 634.87568497 C440.79503832 651.43508763 424.2336136 667.98982861 407.66953659 684.54192352 C391.26287868 700.93674153 374.85828773 717.33362321 358.45647049 733.733284 C357.94732625 734.24235941 357.43818201 734.75143483 356.91360915 735.27593678 C352.26344684 739.92547271 347.61331002 744.57503414 342.96320381 749.22462617 C331.40291761 760.78363349 319.84231153 772.34232085 308.28148842 783.90079117 C307.75500071 784.42717225 307.22851299 784.95355332 306.68607111 785.49588534 C281.0676848 811.10902704 255.445614 836.71848207 229.82324219 862.32763672 C220.93032556 871.21597008 212.03742521 880.10431972 203.14459229 888.99273682 C202.59306723 889.54398798 202.04154217 890.09523914 201.47330423 890.66319488 C175.84026427 916.28354958 150.20984018 941.90652052 124.58009168 967.53016783 C122.91644287 969.19342051 121.25279293 970.85667206 119.58914277 972.51992339 C108.56416292 983.5422637 97.53922818 994.56464913 86.51432366 1005.58706478 C64.57699796 1027.51943731 42.63940719 1049.45154471 20.70163435 1071.38346999 C19.6568711 1072.42795476 18.61210804 1073.47243971 17.56734517 1074.51692485 C-41.16004315 1133.22869738 -99.89237256 1191.93552646 -191 1283 C-194.27815444 1281.56416029 -196.44893857 1279.80062333 -198.97211385 1277.27628314 C-199.75801514 1276.49487644 -200.54391644 1275.71346973 -201.35363293 1274.90838403 C-202.64220369 1273.61193222 -202.64220369 1273.61193222 -203.95680618 1272.28928947 C-204.8765201 1271.37188325 -205.79623401 1270.45447702 -206.74381804 1269.50927061 C-209.30910074 1266.95014159 -211.86807769 1264.38478584 -214.42611504 1261.81841735 C-217.20536342 1259.03231445 -219.99039749 1256.25200544 -222.77471614 1253.47097123 C-227.65786965 1248.59197084 -232.53728302 1243.70925465 -237.4142952 1238.82411575 C-244.66629393 1231.56006631 -251.92399897 1224.30173857 -259.1829038 1217.04459113 C-271.39229597 1204.8378293 -283.59702005 1192.62641019 -295.79911041 1180.4123497 C-307.88449773 1168.31513708 -319.97194303 1156.21998696 -332.06215668 1144.12759781 C-332.81328167 1143.37633533 -333.56440667 1142.62507286 -334.33829303 1141.85104485 C-338.15273217 1138.03592906 -341.96720825 1134.22085021 -345.78169855 1130.40578558 C-372.8148467 1103.3684342 -399.84335279 1076.32644665 -426.86914062 1049.28173828 C-453.12786295 1023.00465363 -479.38868042 996.72966573 -505.65234375 970.45751953 C-506.86622205 969.24324665 -506.86622205 969.24324665 -508.10462314 968.00444301 C-516.23130854 959.87512062 -524.35803662 951.7458409 -532.48479598 943.61659245 C-549.04062813 927.05568759 -565.59617533 910.49449788 -582.15155029 893.93313599 C-583.29338905 892.79088536 -583.29338905 892.79088536 -584.45829525 891.62555897 C-635.31030307 840.7551431 -686.1556677 789.8780873 -737 739 C-735.4136299 735.14998175 -732.96450905 732.71511657 -730.0387615 729.7903645 C-729.52580124 729.27484808 -729.01284099 728.75933165 -728.48433648 728.22819351 C-726.75265925 726.49035827 -725.0139045 724.75978034 -723.27513695 723.02904129 C-722.01888985 721.77131564 -720.76308187 720.51315126 -719.50767529 719.25458664 C-716.03466372 715.77541288 -712.55540294 712.30254643 -709.07515037 708.83061798 C-705.29837833 705.06069344 -701.52739143 701.28498985 -697.75568545 697.50999808 C-691.13729778 690.88745508 -684.51518703 684.2686531 -677.89066124 677.65225029 C-668.04017282 667.81380708 -658.19539833 657.9696613 -648.35180996 648.12431503 C-631.79503832 631.56491237 -615.2336136 615.01017139 -598.66953659 598.45807648 C-582.26287868 582.06325847 -565.85828773 565.66637679 -549.45647049 549.266716 C-548.94732625 548.75764059 -548.43818201 548.24856517 -547.91360915 547.72406322 C-543.26344684 543.07452729 -538.61331002 538.42496586 -533.96320381 533.77537383 C-522.40291761 522.21636651 -510.84231153 510.65767915 -499.28148842 499.09920883 C-498.75500071 498.57282775 -498.22851299 498.04644668 -497.68607111 497.50411466 C-472.0676848 471.89097296 -446.445614 446.28151793 -420.82324219 420.67236328 C-411.93032556 411.78402992 -403.03742521 402.89568028 -394.14459229 394.00726318 C-393.59306723 393.45601202 -393.04154217 392.90476086 -392.47330423 392.33680512 C-366.84026427 366.71645042 -341.20984018 341.09347948 -315.58009168 315.46983217 C-313.91644287 313.80657949 -312.25279293 312.14332794 -310.58914277 310.48007661 C-299.56416292 299.4577363 -288.53922818 288.43535087 -277.51432366 277.41293522 C-255.57699796 255.48056269 -233.63940719 233.54845529 -211.70163435 211.61653001 C-210.6568711 210.57204524 -209.61210804 209.52756029 -208.56734517 208.48307515 C-149.83995685 149.77130262 -91.10762744 91.06447354 0 0 Z M-3.97474492 134.7165823 C-4.52143389 135.26909696 -5.06812287 135.82161161 -5.63137817 136.39086914 C-6.5037381 137.26066579 -6.5037381 137.26066579 -7.39372146 138.1480341 C-9.35467627 140.1056766 -11.30836574 142.07041582 -13.26220703 144.03515625 C-14.66106963 145.43458259 -16.06037198 146.83356948 -17.46008301 148.23214722 C-21.27012048 152.04160871 -25.07394184 155.85722388 -28.876719 159.67393112 C-32.84767368 163.6573525 -36.82425838 167.63514514 -40.80026245 171.61352539 C-48.33364055 179.15313024 -55.86190413 186.69782074 -63.38836658 194.2443285 C-71.95505637 202.8333402 -80.5273972 211.4167022 -89.1002295 219.99958229 C-106.73980436 237.6600862 -124.37223136 255.3277123 -142 273 C-140.57567584 275.97816718 -139.22096735 277.97931682 -136.8125 280.25 C-134.38480664 282.60818885 -132.07980782 284.99480611 -129.875 287.5625 C-127.10328446 290.78368293 -124.2382977 293.89902875 -121.33007812 296.99609375 C-116.08052086 302.58840562 -111.0261216 308.24980525 -106.23046875 314.2421875 C-104.2204887 316.72738175 -102.15842906 319.1581629 -100.07128906 321.57861328 C-93.31753017 329.43098998 -87.11651031 337.64583467 -81 346 C-80.19079102 347.10166504 -80.19079102 347.10166504 -79.36523438 348.22558594 C-71.97112869 358.30885226 -64.79339458 368.50205427 -58 379 C-57.53770996 379.7120459 -57.07541992 380.4240918 -56.59912109 381.15771484 C-48.60376822 393.51514003 -41.12860685 406.12429926 -34 419 C-33.4131543 420.05864258 -32.82630859 421.11728516 -32.22167969 422.20800781 C8.90081871 496.7655444 33.92605536 578.37300404 47 698 C47.05639648 698.95696777 47.11279297 699.91393555 47.17089844 700.89990234 C51.68227331 779.98243532 42.71936509 862.03594162 17.64331055 937.35107422 C16.73194973 940.0811529 16.73194973 940.0811529 18 943 C149.01 811.99 280.02 680.98 415 546 C413.38580578 542.77161156 412.52262469 541.27256255 410.11856031 538.86786199 C409.22888541 537.97067652 409.22888541 537.97067652 408.32123727 537.0553661 C407.66767701 536.40648818 407.01411676 535.75761026 406.34075165 535.08906937 C405.64512157 534.3905324 404.94949149 533.69199544 404.23278171 532.97229069 C401.88319117 530.61535806 399.52649133 528.26566338 397.1697998 525.91583252 C395.47378142 524.21751138 393.77819954 522.51875423 392.08301878 520.81959701 C388.38740852 517.1173582 384.68868188 513.41826228 380.98721123 509.72188377 C375.48319567 504.22541966 369.98489161 498.72326873 364.48771246 493.21996839 C354.67128261 483.39299526 344.84912303 473.57176486 335.02453496 463.75294871 C326.42827479 455.16171425 317.83386919 446.56862999 309.24131775 437.97368622 C308.67195695 437.40417265 308.10259615 436.83465908 307.515982 436.24788753 C305.20494317 433.93622605 302.89391141 431.6245575 300.5828913 429.3128773 C278.89388154 407.61774637 257.19903763 385.92845789 235.50158816 364.24176795 C216.20920921 344.95888313 196.9220109 325.67083088 177.63916016 306.37841797 C155.98978665 284.71834474 134.33719783 263.06149416 112.67938089 241.40986323 C110.37247497 239.10359878 108.06557694 236.79732642 105.75868225 234.49105072 C105.19063525 233.92316187 104.62258825 233.35527303 104.0373277 232.77017543 C95.44478971 224.17991608 86.85472921 215.58718452 78.26585388 206.99326324 C68.50524355 197.22694728 58.74109328 187.46418632 48.97219217 177.70616302 C43.49940069 172.239264 38.02940426 166.7696025 32.56331929 161.29599779 C28.49238633 157.22008051 24.41629473 153.14935595 20.33808905 149.0807167 C18.68092332 147.42580097 17.02547423 145.76916427 15.37184185 144.11071792 C13.13885499 141.87172552 10.89991468 139.63886916 8.65924835 137.40756607 C8.0056881 136.74932348 7.35212784 136.0910809 6.67876273 135.41289157 C1.83864296 130.61363165 0.96912064 129.81219928 -3.97474492 134.7165823 Z M-210.76098061 341.51488495 C-211.47444838 342.2301963 -212.18791615 342.94550766 -212.92300415 343.68249512 C-213.74192642 344.49866806 -214.56084869 345.314841 -215.40458679 346.15574646 C-216.75433342 347.51627892 -216.75433342 347.51627892 -218.13134766 348.90429688 C-219.08686609 349.86037913 -220.0428245 350.81602185 -220.99919128 351.77125549 C-223.60059544 354.37208398 -226.1957716 356.97904891 -228.78990984 359.58712196 C-231.49963644 362.30932044 -234.21499834 365.02588552 -236.92977905 367.74304199 C-242.07258335 372.89207151 -247.21026667 378.0461797 -252.3461498 383.20211172 C-258.19221087 389.07049944 -264.04392744 394.93323364 -269.89613652 400.79548931 C-281.93708168 412.85736005 -293.97087093 424.92634546 -306 437 C-304.31246887 440.61019064 -302.34012348 442.80523482 -299.4375 445.5625 C-295.07534094 449.83051175 -291.17764693 454.27890971 -287.3984375 459.06640625 C-285.38086171 461.53415774 -283.30642906 463.89656903 -281.171875 466.26171875 C-277.15980882 470.75327576 -273.47167855 475.42191626 -269.875 480.25 C-269.23248291 481.11206055 -268.58996582 481.97412109 -267.92797852 482.86230469 C-208.66035927 563.10466837 -181.48107415 657.6557539 -188.26782227 802.33813477 C-195.43260892 848.5313988 -209.56473643 892.46069344 -230.98632812 934.03027344 C-231.67168006 935.36202185 -232.35255644 936.69608155 -233.02929688 938.03222656 C-246.53371493 964.67641824 -263.87879009 989.1167309 -283 1012 C-283.67651611 1012.81404297 -283.67651611 1012.81404297 -284.36669922 1013.64453125 C-291.50334505 1022.20947294 -298.99029251 1030.24592147 -307 1038 C-302.24294527 1043.72214296 -297.144737 1048.99138468 -291.87353516 1054.23999023 C-290.97533051 1055.13834091 -290.07712585 1056.03669159 -289.15170288 1056.96226501 C-286.70808822 1059.40616461 -284.26141992 1061.84698562 -281.81415987 1064.28723407 C-279.24990276 1066.84520673 -276.68850909 1069.40604351 -274.12680054 1071.96656799 C-269.28410235 1076.8061678 -264.4388625 1081.64321453 -259.59268701 1086.47933203 C-254.07192327 1091.98888809 -248.55402528 1097.50131047 -243.03635716 1103.01396644 C-231.69407344 1114.34581961 -220.34822555 1125.67409718 -209 1137 C-205.6992076 1135.89973587 -205.07519718 1135.17290663 -202.9375 1132.5625 C-200.09943218 1129.20841985 -197.13075656 1126.08310425 -194 1123 C-189.78405054 1118.82208918 -185.83286329 1114.52831065 -182 1110 C-180.76830078 1108.56720703 -180.76830078 1108.56720703 -179.51171875 1107.10546875 C-173.26879891 1099.82056517 -167.23838451 1092.39009478 -161.3828125 1084.79052734 C-160.48348921 1083.62604341 -159.58005221 1082.46472096 -158.671875 1081.30712891 C-142.3879369 1060.53912109 -127.91046007 1037.99574075 -115 1015 C-114.45214844 1014.03304199 -113.90429688 1013.06608398 -113.33984375 1012.06982422 C-98.01564326 984.88158583 -85.3454844 956.43840264 -75 927 C-74.57912109 925.8032666 -74.15824219 924.6065332 -73.72460938 923.37353516 C-57.2434534 875.84780543 -47.43241529 826.1675085 -44 776 C-43.94215332 775.18466797 -43.88430664 774.36933594 -43.82470703 773.52929688 C-38.56617561 696.19611671 -50.4718168 618.25834203 -105 480 C-105.44408203 479.11070801 -105.88816406 478.22141602 -106.34570312 477.30517578 C-127.65394871 434.81531841 -155.93990915 395.50456754 -187.8515625 360.3671875 C-189.33379639 358.73403525 -190.80724912 357.09288501 -192.2734375 355.4453125 C-199.30073115 347.389495 -199.30073115 347.389495 -207 340 C-209.13445525 339.78261715 -209.13445525 339.78261715 -210.76098061 341.51488495 Z M-373.45052433 504.3274765 C-374.38937048 505.26770535 -374.38937048 505.26770535 -375.34718323 506.22692871 C-376.06376099 506.94213181 -376.78033875 507.6573349 -377.51863098 508.39421082 C-378.30984848 509.18902359 -379.10106598 509.98383636 -379.91625977 510.80273438 C-380.74545929 511.63178787 -381.57465881 512.46084137 -382.4289856 513.3150177 C-384.70959148 515.59620272 -386.98795648 517.87959834 -389.26536679 520.16397285 C-391.64322575 522.54806425 -394.02389879 524.9293421 -396.40428162 527.31091309 C-400.91470527 531.82445039 -405.42257281 536.34053175 -409.92953962 540.85752058 C-415.0593019 545.99844297 -420.1918889 551.13654119 -425.32472146 556.27439785 C-435.8863057 566.84644723 -446.44431683 577.42205844 -457 588 C-455.14468377 591.97544929 -452.52833514 594.94283923 -449.625 598.1875 C-432.94145708 617.33267342 -419.92668862 639.23632807 -411 663 C-410.72462402 663.721875 -410.44924805 664.44375 -410.16552734 665.1875 C-390.83011584 716.65535847 -394.04806276 775.94652949 -416 826 C-426.56004896 848.79797237 -440.8279897 868.74775478 -458 887 C-453.58936273 892.27879487 -448.94167559 897.19628891 -444.06689453 902.04663086 C-443.2954863 902.81818512 -442.52407806 903.58973938 -441.72929382 904.38467407 C-439.19949856 906.91377718 -436.66618838 909.43932775 -434.1328125 911.96484375 C-432.36996979 913.7258198 -430.60734891 915.48701795 -428.84494019 917.24842834 C-424.22104219 921.86852067 -419.59414819 926.48560112 -414.96661377 931.10205078 C-410.23867011 935.81919268 -405.51412441 940.53973751 -400.7890625 945.25976562 C-391.52882486 954.50930035 -382.26551475 963.75575165 -373 973 C-370.12338944 971.61835562 -368.12204429 970.35101589 -365.93359375 968.015625 C-365.3713208 967.4175 -364.80904785 966.819375 -364.22973633 966.203125 C-363.63829834 965.55859375 -363.04686035 964.9140625 -362.4375 964.25 C-361.81834717 963.5796875 -361.19919434 962.909375 -360.5612793 962.21875 C-354.66112189 955.75598589 -349.25462975 948.99129652 -344 942 C-343.55591797 941.41814941 -343.11183594 940.83629883 -342.65429688 940.23681641 C-324.09920273 915.90828469 -309.63566394 889.25323683 -298 861 C-297.66129883 860.17999512 -297.32259766 859.35999023 -296.97363281 858.51513672 C-265.15729663 780.20439495 -267.60793412 687.00138554 -300.30326843 609.45007324 C-306.38985169 595.20780092 -312.98629053 581.2677511 -321 568 C-321.45697266 567.23574707 -321.91394531 566.47149414 -322.38476562 565.68408203 C-329.50714264 553.84638303 -337.38142069 542.78969367 -346 532 C-346.42941895 531.45875488 -346.85883789 530.91750977 -347.30126953 530.35986328 C-351.95211035 524.5118511 -356.81727403 518.8911469 -361.8515625 513.37109375 C-364.51905267 510.4271546 -367.10813587 507.41963715 -369.6875 504.3984375 C-370.120625 503.93695312 -370.55375 503.47546875 -371 503 C-372.2047609 502.88747925 -372.2047609 502.88747925 -373.45052433 504.3274765 Z M-525.54233742 656.29624176 C-526.45767785 657.21434757 -526.45767785 657.21434757 -527.39151001 658.15100098 C-528.44319618 659.19856316 -528.44319618 659.19856316 -529.51612854 660.26728821 C-530.66950966 661.43145515 -530.66950966 661.43145515 -531.84619141 662.61914062 C-532.65602982 663.42868698 -533.46586823 664.23823334 -534.30024719 665.0723114 C-536.98878362 667.76224655 -539.67015759 670.45920739 -542.3515625 673.15625 C-544.20914931 675.01756501 -546.06717677 676.87844035 -547.92562866 678.7388916 C-552.32469978 683.14418712 -556.71864647 687.55455758 -561.11079347 691.96675539 C-566.11043598 696.98872707 -571.11573636 702.0050432 -576.12152982 707.02088261 C-586.42067866 717.34095519 -596.71267256 727.66814367 -607 738 C-602.64304101 743.21063922 -598.0641384 748.07416581 -593.25048828 752.86303711 C-592.49858719 753.61508423 -591.7466861 754.36713135 -590.97200012 755.14196777 C-588.507136 757.60613996 -586.03875789 760.06675951 -583.5703125 762.52734375 C-581.85231025 764.24347927 -580.13452988 765.95983694 -578.41696167 767.67640686 C-573.91143139 772.17813208 -569.40290529 776.67684517 -564.89373779 781.17492676 C-560.28671199 785.77169509 -555.68254087 790.37132077 -551.078125 794.97070312 C-542.05486698 803.98325932 -533.02853652 812.99273182 -524 822 C-522.88060006 821.05917035 -521.76384323 820.1151954 -520.64819336 819.16992188 C-520.02601425 818.64458862 -519.40383514 818.11925537 -518.76280212 817.57800293 C-501.04214799 801.71505169 -491.02259407 773.05314333 -489 750 C-487.2851376 714.56061401 -496.63932842 682.78781146 -520.69140625 656.125 C-522.68616833 654.41010006 -523.57317322 654.64127778 -525.54233742 656.29624176 Z " fill="#1655F2" transform="translate(784,224)"/>
<path d="M0 0 C141.24 0 282.48 0 428 0 C428 30.69 428 61.38 428 93 C320.09 93 212.18 93 101 93 C101 141.51 101 190.02 101 240 C196.7 240 292.4 240 391 240 C391 270.69 391 301.38 391 333 C295.3 333 199.6 333 101 333 C101 383.49 101 433.98 101 486 C210.23 486 319.46 486 432 486 C432 516.69 432 547.38 432 579 C289.44 579 146.88 579 0 579 C0 387.93 0 196.86 0 0 Z " fill="#000000" transform="translate(1689,308)"/>
<path d="M0 0 C0.73300323 0.00060425 1.46600647 0.0012085 2.22122192 0.00183105 C66.79500917 0.14474161 131.01436829 15.72836527 183.75 54.1875 C184.41483398 54.66832031 185.07966797 55.14914062 185.76464844 55.64453125 C194.88476051 62.26305203 203.63124278 69.22653322 212.06542969 76.69970703 C213.79583427 78.2279803 215.54204166 79.73686454 217.2890625 81.24609375 C218.40202642 82.22544453 219.51404613 83.20586966 220.625 84.1875 C221.61242188 85.05375 222.59984375 85.92 223.6171875 86.8125 C225.75 89.1875 225.75 89.1875 225.75 93.1875 C224.1611144 95.18622899 222.59634825 96.94268006 220.8125 98.75 C219.7905237 99.82189288 218.77102979 100.89615748 217.75390625 101.97265625 C217.24359863 102.51164551 216.73329102 103.05063477 216.20751953 103.60595703 C214.11157529 105.88024963 212.18113596 108.27270385 210.25 110.6875 C206.61500611 115.20527813 202.7828971 119.46568516 198.8359375 123.70703125 C195.84558642 126.93961747 193.01213671 130.25455866 190.25 133.6875 C186.61994336 138.19914182 182.79443363 142.45519843 178.85131836 146.68945312 C174.94542035 150.90966622 171.30470541 155.31317844 167.72265625 159.8125 C165.84147784 162.0773643 163.86586019 164.14264183 161.75 166.1875 C157.73241241 164.52404364 154.77023296 161.72470271 151.5625 158.875 C120.78451133 132.0888627 85.67434129 109.9255461 45.75 100.1875 C45.07227539 100.02024414 44.39455078 99.85298828 43.69628906 99.68066406 C-3.3921152 88.46913924 -55.2944863 96.62612176 -96.58959961 121.57495117 C-112.55386765 131.50259004 -128.27374689 143.61483264 -140.25 158.1875 C-140.89775391 158.95876221 -140.89775391 158.95876221 -141.55859375 159.74560547 C-149.36388516 169.05537208 -156.17352432 178.66752285 -162.25 189.1875 C-162.63784668 189.85475098 -163.02569336 190.52200195 -163.42529297 191.20947266 C-193.26854241 243.20054243 -196.63509166 306.63218141 -181.62353516 363.75610352 C-172.51303746 396.13444759 -155.0583066 424.72755741 -132.25 449.1875 C-131.56421875 449.92742187 -130.8784375 450.66734375 -130.171875 451.4296875 C-101.66260781 481.10044335 -57.27540095 502.32917079 -15.92724609 503.34863281 C-14.3760367 503.3681906 -12.82474585 503.38193592 -11.2734375 503.390625 C-10.4340564 503.39768463 -9.59467529 503.40474426 -8.7298584 503.41201782 C17.16338395 503.69848961 17.16338395 503.69848961 42.75 500.1875 C43.67828613 499.98882324 44.60657227 499.79014648 45.56298828 499.58544922 C59.25806976 496.54992975 72.09467434 492.2267782 84.75 486.1875 C85.45253906 485.85411621 86.15507812 485.52073242 86.87890625 485.17724609 C113.67272525 472.23733398 137.94692061 453.18430085 159.62890625 432.96484375 C161.61907772 431.29720467 163.42314076 430.29510812 165.75 429.1875 C170.60996424 434.02194731 175.46587543 438.86043889 180.3190918 443.70166016 C181.96791744 445.34548104 183.61764251 446.98840029 185.26831055 448.63037109 C187.65134347 451.00116858 190.03103996 453.37527291 192.41015625 455.75 C193.13960953 456.47429199 193.86906281 457.19858398 194.62062073 457.94482422 C198.62466269 461.94843426 202.43232574 466.05309549 206.12940979 470.34106445 C208.47102533 473.00900737 210.94720772 475.4965879 213.46484375 478 C213.96544815 478.49918945 214.46605255 478.99837891 214.98182678 479.51269531 C216.54800764 481.0733737 218.11766471 482.63049847 219.6875 484.1875 C220.76390654 485.25887887 221.84008014 486.33049182 222.91601562 487.40234375 C225.52466745 490.00009638 228.13644471 492.59467962 230.75 495.1875 C229.22446448 498.78270781 227.09327686 501.10209919 224.34765625 503.85546875 C223.45626953 504.74943359 222.56488281 505.64339844 221.64648438 506.56445312 C220.71126953 507.49193359 219.77605469 508.41941406 218.8125 509.375 C217.46188477 510.7372168 217.46188477 510.7372168 216.08398438 512.12695312 C209.94798111 518.24543746 203.51786865 523.78459118 196.75 529.1875 C195.71072304 530.06261054 194.67560395 530.94273707 193.6484375 531.83203125 C142.07200777 576.1430506 76.15522404 597.64592827 8.75 599.1875 C7.84137207 599.20941406 6.93274414 599.23132813 5.99658203 599.25390625 C-65.40666444 600.7128522 -134.29331212 580.28369961 -190.25 535.1875 C-191.21164063 534.43082031 -192.17328125 533.67414062 -193.1640625 532.89453125 C-200.70321192 526.76775478 -207.61566921 520.03225657 -214.5 513.1875 C-215.42288818 512.27387695 -216.34577637 511.36025391 -217.29663086 510.41894531 C-223.37188475 504.31587083 -228.9235517 497.95111899 -234.25 491.1875 C-234.78334961 490.51879883 -235.31669922 489.85009766 -235.86621094 489.16113281 C-270.62491694 445.19670809 -291.415297 390.74029609 -297.25 335.1875 C-297.3442627 334.35009277 -297.43852539 333.51268555 -297.53564453 332.64990234 C-298.55817062 322.35696079 -298.4937202 312.02086241 -298.5 301.6875 C-298.50067474 300.68883911 -298.50134949 299.69017822 -298.50204468 298.66125488 C-298.41872278 220.81212725 -270.51586051 145.5714531 -216.25 89.1875 C-215.62077637 88.53104492 -214.99155273 87.87458984 -214.34326172 87.19824219 C-205.67472764 78.2039466 -196.8921133 69.78955328 -186.83496094 62.36669922 C-185.33268882 61.24901987 -183.85681668 60.0961098 -182.3828125 58.94140625 C-166.57564793 46.65910801 -149.15800729 37.03023313 -131.25 28.1875 C-130.49460937 27.81141602 -129.73921875 27.43533203 -128.9609375 27.04785156 C-89.13232035 7.48259452 -44.0566205 -0.06808882 0 0 Z " fill="#000000" transform="translate(2851.25,297.8125)"/>
<path d="M0 0 C45.05409622 41.27898657 66.71023522 101.64460691 71.02124023 161.63330078 C71.14684302 165.19167244 71.16201106 168.7448342 71.15405273 172.30517578 C71.15548782 173.75515961 71.15548782 173.75515961 71.1569519 175.23443604 C71.15762666 177.25785386 71.15582205 179.28127394 71.15161133 181.3046875 C71.14622936 184.38953511 71.15159242 187.47423872 71.15795898 190.55908203 C71.15729854 192.53694693 71.15601806 194.51481175 71.15405273 196.49267578 C71.15607697 197.40635925 71.1581012 198.32004272 71.16018677 199.26141357 C71.15703461 200.12631409 71.15388245 200.9912146 71.15063477 201.88232422 C71.14944138 203.00837067 71.14944138 203.00837067 71.14822388 204.15716553 C70.98530819 207.33396262 70.47109757 210.48429941 70.02124023 213.63330078 C-35.57875977 213.63330078 -141.17875977 213.63330078 -249.97875977 213.63330078 C-240.70039958 252.60241356 -227.04066327 284.10964694 -192.17749023 305.75146484 C-161.30853713 324.26108989 -121.93322134 326.9730644 -87.35766602 319.03125 C-56.97157723 311.40616945 -30.93899355 293.59353456 -8.97875977 271.63330078 C-5.70657103 271.96955011 -4.00511386 273.22340616 -1.69360352 275.47705078 C-0.78288086 276.35006836 -0.78288086 276.35006836 0.14624023 277.24072266 C1.10530273 278.17754883 1.10530273 278.17754883 2.08374023 279.13330078 C6.44415921 283.30468425 10.79081762 287.37741636 15.52124023 291.13330078 C21.50177908 295.90700444 27.00358423 301.15112003 32.56811523 306.39501953 C36.30072562 309.90965994 40.13018062 313.29567416 44.02124023 316.63330078 C45.52236781 317.944511 47.02237114 319.25700944 48.52124023 320.57080078 C49.68784157 321.59170878 50.85449683 322.61255515 52.02124023 323.63330078 C47.45328283 330.19233143 42.18331154 335.82079616 36.52124023 341.44580078 C35.63339844 342.32872803 34.74555664 343.21165527 33.83081055 344.12133789 C26.93845213 350.89217643 19.8787296 357.02559583 12.02124023 362.63330078 C11.4248877 363.06868164 10.82853516 363.5040625 10.21411133 363.95263672 C-40.3879247 400.79017849 -102.56316733 413.19313933 -164.2043457 404.16064453 C-202.51982402 397.97518615 -239.98976805 383.78661633 -269.97875977 358.63330078 C-270.82011475 357.93986572 -270.82011475 357.93986572 -271.6784668 357.23242188 C-284.41117731 346.72995203 -295.78647389 335.62554308 -305.67163086 322.38037109 C-306.9213408 320.7100453 -308.19274018 319.05832914 -309.46704102 317.40673828 C-332.57392929 286.89202641 -345.14124471 249.26490758 -349.97875977 211.63330078 C-350.08188477 210.83786865 -350.18500977 210.04243652 -350.29125977 209.22290039 C-351.35721789 199.50840524 -351.22259705 189.70629097 -351.22875977 179.94580078 C-351.22943451 178.9862146 -351.23010925 178.02662842 -351.23080444 177.03796387 C-351.21443422 162.37330123 -350.69747714 148.08096278 -347.97875977 133.63330078 C-347.80715332 132.68729004 -347.63554687 131.7412793 -347.45874023 130.76660156 C-337.26338542 75.87204146 -308.00905111 25.10736823 -262.97875977 -8.36669922 C-262.4210791 -8.79047852 -261.86339844 -9.21425781 -261.28881836 -9.65087891 C-251.73085935 -16.90789943 -241.61649555 -22.83120395 -230.97875977 -28.36669922 C-230.35952637 -28.6926709 -229.74029297 -29.01864258 -229.10229492 -29.35449219 C-211.3206012 -38.59308091 -191.71287339 -44.26369163 -171.97875977 -47.36669922 C-171.2987793 -47.48239258 -170.61879883 -47.59808594 -169.91821289 -47.71728516 C-109.79022499 -57.67949357 -45.41488211 -40.73065567 0 0 Z M-167.97875977 36.63330078 C-168.99067383 36.91173828 -170.00258789 37.19017578 -171.04516602 37.47705078 C-199.34364493 46.03669499 -221.07012038 66.95495179 -234.91577148 92.56591797 C-243.15952239 108.59900999 -250.97875977 128.36106727 -250.97875977 146.63330078 C-177.71875977 146.63330078 -104.45875977 146.63330078 -28.97875977 146.63330078 C-29.61877134 138.95316185 -30.25286458 132.01594064 -32.04125977 124.63330078 C-32.2567749 123.74247803 -32.47229004 122.85165527 -32.69433594 121.93383789 C-40.83532625 89.96926516 -58.46578413 63.37975586 -86.72875977 45.94580078 C-110.72169975 32.48101285 -141.51415074 28.89081743 -167.97875977 36.63330078 Z " fill="#000000" transform="translate(3494.978759765625,490.36669921875)"/>
<path d="M0 0 C33.66 0 67.32 0 102 0 C102 192.72 102 385.44 102 584 C68.34 584 34.68 584 0 584 C0 391.28 0 198.56 0 0 Z " fill="#000000" transform="translate(3908,303)"/>
<path d="M0 0 C33.66 0 67.32 0 102 0 C102 192.72 102 385.44 102 584 C68.34 584 34.68 584 0 584 C0 391.28 0 198.56 0 0 Z " fill="#000000" transform="translate(3672,303)"/>
<path d="M0 0 C1.48113281 1.30904297 1.48113281 1.30904297 2.9921875 2.64453125 C-1.3700583 9.89446089 -6.1817142 16.64153928 -11.3059082 23.36254883 C-15.49573833 28.88559584 -19.44125589 34.54772249 -23.26660156 40.32885742 C-25.87237608 44.21093989 -28.59077369 47.44755218 -32.0078125 50.64453125 C-32.46929688 50.32814697 -32.93078125 50.0117627 -33.40625 49.68579102 C-50.30838941 38.14281562 -66.74854507 28.70007357 -86.0078125 21.64453125 C-87.13703125 21.22171875 -88.26625 20.79890625 -89.4296875 20.36328125 C-112.27640266 12.55041493 -139.84979297 11.42375463 -162.0078125 21.64453125 C-171.61053238 27.11613179 -179.07336792 34.91954809 -182.51171875 45.59765625 C-184.9924844 55.83325624 -184.22346963 66.31502111 -179.30078125 75.73046875 C-163.76371923 98.73095331 -127.86652457 104.2389851 -102.81991577 110.51794434 C-71.25805241 118.43206605 -37.7735273 127.4421468 -13.0078125 149.64453125 C-12.30140625 150.25683594 -11.595 150.86914062 -10.8671875 151.5 C3.85343754 165.09049831 12.58632228 186.25346641 13.8984375 206.06640625 C13.929375 206.9171875 13.9603125 207.76796875 13.9921875 208.64453125 C14.06953125 210.23007813 14.06953125 210.23007813 14.1484375 211.84765625 C14.87579811 239.85103974 6.99741469 265.75250353 -12.0078125 286.64453125 C-12.61882813 287.33675781 -13.22984375 288.02898437 -13.859375 288.7421875 C-35.09825156 311.47230433 -68.71685686 321.70494299 -99.05664062 322.80859375 C-160.95958508 324.63633183 -213.7864018 306.74923998 -261.0078125 266.64453125 C-259.35595981 262.72728059 -256.70359811 259.75361352 -253.9453125 256.58203125 C-252.94193766 255.41342168 -251.93934393 254.24414103 -250.9375 253.07421875 C-250.43959961 252.49381836 -249.94169922 251.91341797 -249.42871094 251.31542969 C-247.43899234 248.97563002 -245.50360653 246.59355172 -243.5703125 244.20703125 C-239.49645835 239.19759034 -235.30689155 234.2949008 -231.08032227 229.41430664 C-228.61557527 226.56010916 -226.21822759 223.70452764 -224.0078125 220.64453125 C-221.2125488 221.95236468 -218.87056536 223.40854483 -216.4609375 225.33203125 C-215.78933594 225.86086914 -215.11773438 226.38970703 -214.42578125 226.93457031 C-213.71035156 227.49885742 -212.99492187 228.06314453 -212.2578125 228.64453125 C-204.16759948 234.91340558 -195.86617939 240.52285442 -187.0078125 245.64453125 C-186.32219238 246.0415625 -185.63657227 246.43859375 -184.93017578 246.84765625 C-156.09044206 263.32368312 -120.30008616 270.95851514 -87.453125 263.62109375 C-73.7625367 259.74054151 -60.86465632 253.05481723 -53.65625 240.2421875 C-48.51612192 229.12989623 -48.62586863 217.15279111 -52.640625 205.6484375 C-59.25309726 191.1198913 -76.17870662 184.94893893 -90.2421875 179.64453125 C-104.11213765 174.67503196 -118.53142348 171.26137625 -132.80859375 167.6796875 C-213.46033946 147.42035444 -213.46033946 147.42035444 -235.00366211 112.91162109 C-248.39243277 90.48566007 -250.75107417 61.26477996 -244.98046875 36.03515625 C-240.92867886 21.91084452 -234.59108741 8.8384406 -225.0078125 -2.35546875 C-224.35296875 -3.1546875 -223.698125 -3.95390625 -223.0234375 -4.77734375 C-202.64747526 -28.72281763 -171.51893476 -39.55334573 -140.93994141 -42.15698242 C-91.24651681 -45.52090867 -38.49486941 -32.9280675 0 0 Z " fill="#000000" transform="translate(2741.0078125,1062.35546875)"/>
<path d="M0 0 C95.04 0 190.08 0 288 0 C288 19.47 288 38.94 288 59 C251.04 59 214.08 59 176 59 C176 156.68 176 254.36 176 355 C154.88 355 133.76 355 112 355 C112 257.32 112 159.64 112 59 C75.04 59 38.08 59 0 59 C0 39.53 0 20.06 0 0 Z " fill="#000000" transform="translate(2962,1025)"/>
<path d="M0 0 C230.67 0 461.34 0 699 0 C699 16.5 699 33 699 50 C468.33 50 237.66 50 0 50 C0 33.5 0 17 0 0 Z " fill="#000000" transform="translate(3311,1174)"/>
<path d="M0 0 C229.68 0 459.36 0 696 0 C696 16.5 696 33 696 50 C466.32 50 236.64 50 0 50 C0 33.5 0 17 0 0 Z " fill="#000000" transform="translate(1689,1174)"/>
<path d="M0 0 C80.85 0 161.7 0 245 0 C245 32.67 245 65.34 245 99 C164.15 99 83.3 99 0 99 C0 66.33 0 33.66 0 0 Z " fill="#000000" transform="translate(2214,584)"/>
<path d="M0 0 C20.46 0 40.92 0 62 0 C62 117.15 62 234.3 62 355 C41.54 355 21.08 355 0 355 C0 237.85 0 120.7 0 0 Z " fill="#000000" transform="translate(2831,1025)"/>
<path d="M0 0 C4.29 0 8.58 0 13 0 C13 499.62 13 999.24 13 1514 C8.71 1514 4.42 1514 0 1514 C0 1014.38 0 514.76 0 0 Z " fill="#000000" transform="translate(1434,78)"/>
</svg>
